<?xml version="1.0" encoding="UTF-8"?>
<svg width="28px" height="27px" viewBox="0 0 28 27" version="1.1" xmlns="http://www.w3.org/2000/svg" xmlns:xlink="http://www.w3.org/1999/xlink">
    <!-- Generator: Sketch 48.2 (47327) - http://www.bohemiancoding.com/sketch -->
    <title>pigeon</title>
    <desc>Created with Sketch.</desc>
    <defs></defs>
    <g id="Artboard" stroke="none" stroke-width="1" fill="none" fill-rule="evenodd" transform="translate(-142.000000, -133.000000)">
        <path d="M147.85341,158.386972 C144.309225,155.846839 142,151.693094 142,147 C142,139.268014 148.268014,133 156,133 C163.731986,133 170,139.268014 170,147 C170,152.753883 166.528878,157.697043 161.566413,159.8497 C160.526709,156.535379 158.580243,152.00458 160.139856,149.251329 C162.274286,145.48333 166.503201,148.08031 166.503201,148.08031 C166.627012,146.160454 165.269637,144.36782 162.850911,143.748267 C161.275916,140.944677 160.437214,139.507042 156.058794,139.507042 C151.680374,139.507042 149.46042,142.56661 148.40182,146.215403 C147.602356,148.971001 148.322845,153.790022 147.85341,158.386972 Z M157.44792,146.012154 C156.323135,146.012154 155.411317,145.100336 155.411317,143.975551 C155.411317,142.850766 156.323135,141.938948 157.44792,141.938948 C158.572705,141.938948 159.484524,142.850766 159.484524,143.975551 C159.484524,145.100336 158.572705,146.012154 157.44792,146.012154 Z M157.44792,145.044114 C158.038071,145.044114 158.516483,144.565702 158.516483,143.975551 C158.516483,143.3854 158.038071,142.906988 157.44792,142.906988 C156.85777,142.906988 156.379358,143.3854 156.379358,143.975551 C156.379358,144.565702 156.85777,145.044114 157.44792,145.044114 Z" id="pigeon" fill="#FFFFFF"></path>
    </g>
</svg>